<svg xmlns="http://www.w3.org/2000/svg" viewBox="0 0 512 512" width="512" height="512">
  <defs>
    <linearGradient id="g" x1="0" y1="0" x2="1" y2="1">
      <stop offset="0" stop-color="#16a34a"/>
      <stop offset="1" stop-color="#065f46"/>
    </linearGradient>
  </defs>
  <rect width="512" height="512" rx="112" fill="url(#g)"/>
  <path fill="#ffffff" d="M368 128c0 120-72 208-176 208-20 0-38-3-54-9 14-92 78-150 150-168-78 8-138 54-166 124-8-22-12-46-12-72 0-62 50-112 112-112 56 0 92 18 146 28z"/>
  <path fill="#bbf7d0" d="M150 360c40-78 96-128 170-150-60 30-104 80-128 150z"/>
</svg>
